<svg id="visual" viewBox="0 0 900 200" width="900" height="200" xmlns="http://www.w3.org/2000/svg" xmlns:xlink="http://www.w3.org/1999/xlink" version="1.1"><path d="M0 132L10 130.7C20 129.3 40 126.7 60 129.3C80 132 100 140 120 144C140 148 160 148 180 146C200 144 220 140 240 140.3C260 140.7 280 145.3 300 144C320 142.7 340 135.3 360 134.5C380 133.7 400 139.3 420 144.7C440 150 460 155 480 155.3C500 155.7 520 151.3 540 149.7C560 148 580 149 600 148.5C620 148 640 146 660 147.2C680 148.3 700 152.7 720 154.7C740 156.7 760 156.3 780 156.5C800 156.7 820 157.3 840 157.8C860 158.3 880 158.7 890 158.8L900 159L900 201L890 201C880 201 860 201 840 201C820 201 800 201 780 201C760 201 740 201 720 201C700 201 680 201 660 201C640 201 620 201 600 201C580 201 560 201 540 201C520 201 500 201 480 201C460 201 440 201 420 201C400 201 380 201 360 201C340 201 320 201 300 201C280 201 260 201 240 201C220 201 200 201 180 201C160 201 140 201 120 201C100 201 80 201 60 201C40 201 20 201 10 201L0 201Z" fill="#001122"></path><path d="M0 162L10 157.3C20 152.7 40 143.3 60 138.5C80 133.7 100 133.3 120 137.5C140 141.7 160 150.3 180 151C200 151.7 220 144.3 240 144.5C260 144.7 280 152.3 300 155.5C320 158.7 340 157.3 360 157.3C380 157.3 400 158.7 420 157.2C440 155.7 460 151.3 480 147.2C500 143 520 139 540 138.2C560 137.3 580 139.7 600 145C620 150.3 640 158.7 660 161.8C680 165 700 163 720 160.3C740 157.7 760 154.3 780 150.2C800 146 820 141 840 141.8C860 142.7 880 149.3 890 152.7L900 156L900 201L890 201C880 201 860 201 840 201C820 201 800 201 780 201C760 201 740 201 720 201C700 201 680 201 660 201C640 201 620 201 600 201C580 201 560 201 540 201C520 201 500 201 480 201C460 201 440 201 420 201C400 201 380 201 360 201C340 201 320 201 300 201C280 201 260 201 240 201C220 201 200 201 180 201C160 201 140 201 120 201C100 201 80 201 60 201C40 201 20 201 10 201L0 201Z" fill="#015b70"></path><path d="M0 169L10 167.2C20 165.3 40 161.7 60 160.7C80 159.7 100 161.3 120 163.7C140 166 160 169 180 167.8C200 166.7 220 161.3 240 159.7C260 158 280 160 300 157.8C320 155.7 340 149.3 360 148.3C380 147.3 400 151.7 420 156.5C440 161.3 460 166.7 480 166.7C500 166.7 520 161.3 540 159.7C560 158 580 160 600 158.2C620 156.3 640 150.7 660 151.3C680 152 700 159 720 163.7C740 168.3 760 170.7 780 169.7C800 168.7 820 164.3 840 159.3C860 154.3 880 148.7 890 145.8L900 143L900 201L890 201C880 201 860 201 840 201C820 201 800 201 780 201C760 201 740 201 720 201C700 201 680 201 660 201C640 201 620 201 600 201C580 201 560 201 540 201C520 201 500 201 480 201C460 201 440 201 420 201C400 201 380 201 360 201C340 201 320 201 300 201C280 201 260 201 240 201C220 201 200 201 180 201C160 201 140 201 120 201C100 201 80 201 60 201C40 201 20 201 10 201L0 201Z" fill="#00b0a0"></path><path d="M0 179L10 178.8C20 178.7 40 178.3 60 173.7C80 169 100 160 120 159.3C140 158.7 160 166.3 180 167.5C200 168.7 220 163.3 240 161.7C260 160 280 162 300 161.5C320 161 340 158 360 159.2C380 160.3 400 165.7 420 167C440 168.3 460 165.7 480 163.5C500 161.3 520 159.7 540 157.8C560 156 580 154 600 157.3C620 160.7 640 169.3 660 169.8C680 170.3 700 162.7 720 162.8C740 163 760 171 780 171.2C800 171.3 820 163.7 840 162.3C860 161 880 166 890 168.5L900 171L900 201L890 201C880 201 860 201 840 201C820 201 800 201 780 201C760 201 740 201 720 201C700 201 680 201 660 201C640 201 620 201 600 201C580 201 560 201 540 201C520 201 500 201 480 201C460 201 440 201 420 201C400 201 380 201 360 201C340 201 320 201 300 201C280 201 260 201 240 201C220 201 200 201 180 201C160 201 140 201 120 201C100 201 80 201 60 201C40 201 20 201 10 201L0 201Z" fill="#32d19c"></path><path d="M0 165L10 166.3C20 167.7 40 170.3 60 171C80 171.7 100 170.3 120 171.8C140 173.3 160 177.7 180 176.8C200 176 220 170 240 169.8C260 169.7 280 175.3 300 175C320 174.7 340 168.3 360 168.5C380 168.7 400 175.3 420 175.8C440 176.3 460 170.7 480 170.3C500 170 520 175 540 176.7C560 178.3 580 176.7 600 176.2C620 175.7 640 176.3 660 175.8C680 175.3 700 173.7 720 171C740 168.3 760 164.7 780 164.5C800 164.3 820 167.7 840 170.8C860 174 880 177 890 178.5L900 180L900 201L890 201C880 201 860 201 840 201C820 201 800 201 780 201C760 201 740 201 720 201C700 201 680 201 660 201C640 201 620 201 600 201C580 201 560 201 540 201C520 201 500 201 480 201C460 201 440 201 420 201C400 201 380 201 360 201C340 201 320 201 300 201C280 201 260 201 240 201C220 201 200 201 180 201C160 201 140 201 120 201C100 201 80 201 60 201C40 201 20 201 10 201L0 201Z" fill="#00b0a0"></path><path d="M0 180L10 178.8C20 177.7 40 175.3 60 175.7C80 176 100 179 120 179.5C140 180 160 178 180 177.7C200 177.3 220 178.7 240 179.3C260 180 280 180 300 179C320 178 340 176 360 176.2C380 176.3 400 178.7 420 179.2C440 179.7 460 178.3 480 178.8C500 179.3 520 181.7 540 183.7C560 185.7 580 187.3 600 185.5C620 183.7 640 178.3 660 178.2C680 178 700 183 720 185C740 187 760 186 780 183.5C800 181 820 177 840 174.7C860 172.3 880 171.7 890 171.3L900 171L900 201L890 201C880 201 860 201 840 201C820 201 800 201 780 201C760 201 740 201 720 201C700 201 680 201 660 201C640 201 620 201 600 201C580 201 560 201 540 201C520 201 500 201 480 201C460 201 440 201 420 201C400 201 380 201 360 201C340 201 320 201 300 201C280 201 260 201 240 201C220 201 200 201 180 201C160 201 140 201 120 201C100 201 80 201 60 201C40 201 20 201 10 201L0 201Z" fill="#015b70"></path><path d="M0 196L10 196.2C20 196.3 40 196.7 60 194.8C80 193 100 189 120 186.8C140 184.7 160 184.3 180 186.3C200 188.3 220 192.7 240 194.5C260 196.3 280 195.7 300 194.3C320 193 340 191 360 189.8C380 188.7 400 188.3 420 188.7C440 189 460 190 480 190C500 190 520 189 540 188.7C560 188.3 580 188.7 600 190C620 191.3 640 193.7 660 193.7C680 193.7 700 191.3 720 190.7C740 190 760 191 780 190C800 189 820 186 840 184.7C860 183.3 880 183.7 890 183.8L900 184L900 201L890 201C880 201 860 201 840 201C820 201 800 201 780 201C760 201 740 201 720 201C700 201 680 201 660 201C640 201 620 201 600 201C580 201 560 201 540 201C520 201 500 201 480 201C460 201 440 201 420 201C400 201 380 201 360 201C340 201 320 201 300 201C280 201 260 201 240 201C220 201 200 201 180 201C160 201 140 201 120 201C100 201 80 201 60 201C40 201 20 201 10 201L0 201Z" fill="#001122"></path></svg>